<svg xmlns="http://www.w3.org/2000/svg" viewBox="0 0 260 300" role="img" aria-label="tidycreel hex logo">
  <defs><clipPath id="c"><path d="M130 6 L246 73 L246 227 L130 294 L14 227 L14 73 Z"/></clipPath></defs>
  <path d="M130 6 L246 73 L246 227 L130 294 L14 227 L14 73 Z" fill="#f5f0e7"/>
  <g clip-path="url(#c)">
    <rect x="0" y="150" width="260" height="150" fill="#e7eef1"/>
    <path d="M0 168 q32 -14 64 0 t64 0 t64 0 t64 0 v140 H0 Z" fill="#dbe7ec"/>
  </g>
  <!-- creel net weave -->
  <g transform="translate(130 150)" stroke="#2e8b6f" stroke-width="4" stroke-linecap="round" opacity="0.85">
    <path d="M-46 -6 L46 -6"/><path d="M-44 8 L44 8"/><path d="M-40 22 L40 22"/>
    <path d="M-40 -10 L-46 26"/><path d="M-20 -12 L-26 28"/><path d="M0 -12 L0 28"/>
    <path d="M20 -12 L26 28"/><path d="M40 -10 L46 26"/>
  </g>
  <!-- leaping fish -->
  <g transform="translate(130 96) rotate(-18)">
    <path d="M-52 0 C-30 -22 30 -22 52 0 C30 22 -30 22 -52 0 Z" fill="#1f6f8b"/>
    <path d="M-52 0 L-72 -16 L-64 0 L-72 16 Z" fill="#3b6ea5"/>
    <path d="M6 -18 C16 -26 30 -24 36 -14 C26 -16 16 -12 12 -6 C12 -12 10 -16 6 -18 Z" fill="#f47d65"/>
    <path d="M-6 12 C2 22 16 22 24 16 C16 14 8 12 2 8 C0 10 -3 12 -6 12 Z" fill="#2e8b6f"/>
    <circle cx="34" cy="-3" r="4" fill="#f5f0e7"/><circle cx="35" cy="-3" r="2" fill="#1b2a3a"/>
  </g>
  <text x="130" y="232" text-anchor="middle" font-family="'DM Sans','Helvetica Neue',Arial,sans-serif" font-weight="700" font-size="32" fill="#1b2a3a">tidycreel</text>
  <text x="130" y="248" text-anchor="middle" font-family="'JetBrains Mono',monospace" font-weight="500" font-size="9" fill="#1f6f8b" letter-spacing="1.0">CREEL DATA WORKFLOWS</text>
  <path d="M130 6 L246 73 L246 227 L130 294 L14 227 L14 73 Z" fill="none" stroke="#1b2a3a" stroke-width="10" stroke-linejoin="round"/>
</svg>
