<svg xmlns="http://www.w3.org/2000/svg" viewBox="0 0 260 300" role="img" aria-label="pradel-jax hex logo">
  <defs><clipPath id="c"><path d="M130 6 L246 73 L246 227 L130 294 L14 227 L14 73 Z"/></clipPath></defs>
  <path d="M130 6 L246 73 L246 227 L130 294 L14 227 L14 73 Z" fill="#f5f0e7"/>
  <g clip-path="url(#c)">
    <rect x="0" y="150" width="260" height="150" fill="#e7eef1"/>
    <path d="M0 168 q32 -14 64 0 t64 0 t64 0 t64 0 v140 H0 Z" fill="#dbe7ec"/>
  </g>
  <!-- speed lines -->
  <g stroke-linecap="round">
    <path d="M40 88 H96" stroke="#f47d65" stroke-width="6"/>
    <path d="M34 112 H88" stroke="#3b6ea5" stroke-width="6"/>
    <path d="M42 136 H92" stroke="#2e8b6f" stroke-width="6"/>
  </g>
  <!-- lambda (apex top, legs splay down) -->
  <g stroke="#1b2a3a" stroke-width="16" stroke-linecap="round" stroke-linejoin="round" fill="none">
    <path d="M118 62 L156 156"/>
    <path d="M141 104 L110 156"/>
  </g>
  <path d="M118 62 L156 156" stroke="#1f6f8b" stroke-width="7" stroke-linecap="round" fill="none"/>
  <!-- capture-recapture tags -->
  <g fill="#f47d65"><circle cx="176" cy="78" r="6"/><circle cx="190" cy="104" r="6"/><circle cx="176" cy="130" r="6"/></g>
  <g stroke="#1b2a3a" stroke-width="2.5"><line x1="176" y1="78" x2="190" y2="104"/><line x1="190" y1="104" x2="176" y2="130"/></g>
  <text x="130" y="232" text-anchor="middle" font-family="'DM Sans','Helvetica Neue',Arial,sans-serif" font-weight="700" font-size="30" fill="#1b2a3a">pradel-jax</text>
  <text x="130" y="248" text-anchor="middle" font-family="'JetBrains Mono',monospace" font-weight="500" font-size="9" fill="#1f6f8b" letter-spacing="1.0">CAPTURE–RECAPTURE</text>
  <path d="M130 6 L246 73 L246 227 L130 294 L14 227 L14 73 Z" fill="none" stroke="#1b2a3a" stroke-width="10" stroke-linejoin="round"/>
</svg>
